<?xml version="1.0" encoding="utf-8" standalone="no"?>
<!DOCTYPE svg PUBLIC "-//W3C//DTD SVG 1.1//EN"
  "http://www.w3.org/Graphics/SVG/1.1/DTD/svg11.dtd">
<svg xmlns:xlink="http://www.w3.org/1999/xlink" width="720pt" height="576pt" viewBox="0 0 720 576" xmlns="http://www.w3.org/2000/svg" version="1.1">
 <metadata>
  <rdf:RDF xmlns:dc="http://purl.org/dc/elements/1.1/" xmlns:cc="http://creativecommons.org/ns#" xmlns:rdf="http://www.w3.org/1999/02/22-rdf-syntax-ns#">
   <cc:Work>
    <dc:type rdf:resource="http://purl.org/dc/dcmitype/StillImage"/>
    <dc:date>2024-06-04T21:12:30.683432</dc:date>
    <dc:format>image/svg+xml</dc:format>
    <dc:creator>
     <cc:Agent>
      <dc:title>Matplotlib v3.8.4, https://matplotlib.org/</dc:title>
     </cc:Agent>
    </dc:creator>
   </cc:Work>
  </rdf:RDF>
 </metadata>
 <defs>
  <style type="text/css">*{stroke-linejoin: round; stroke-linecap: butt}</style>
 </defs>
 <g id="figure_1">
  <g id="patch_1">
   <path d="M 0 576 
L 720 576 
L 720 0 
L 0 0 
z
" style="fill: #ffffff"/>
  </g>
  <g id="axes_1">
   <g id="patch_2">
    <path d="M 90 512.64 
L 648 512.64 
L 648 69.12 
L 90 69.12 
z
" style="fill: #ffffff"/>
   </g>
   <g id="patch_3">
    <path d="M 115.363636 512.64 
L 181.121212 512.64 
L 181.121212 90.24 
L 115.363636 90.24 
z
" clip-path="url(#p3080a0b5f6)" style="fill: #1f77b4"/>
   </g>
   <g id="patch_4">
    <path d="M 303.242424 512.64 
L 369 512.64 
L 369 396.693154 
L 303.242424 396.693154 
z
" clip-path="url(#p3080a0b5f6)" style="fill: #1f77b4"/>
   </g>
   <g id="patch_5">
    <path d="M 491.121212 512.64 
L 556.878788 512.64 
L 556.878788 396.619142 
L 491.121212 396.619142 
z
" clip-path="url(#p3080a0b5f6)" style="fill: #1f77b4"/>
   </g>
   <g id="patch_6">
    <path d="M 181.121212 512.64 
L 246.878788 512.64 
L 246.878788 360.960269 
L 181.121212 360.960269 
z
" clip-path="url(#p3080a0b5f6)" style="fill: #ff7f0e"/>
   </g>
   <g id="patch_7">
    <path d="M 369 512.64 
L 434.757576 512.64 
L 434.757576 419.577595 
L 369 419.577595 
z
" clip-path="url(#p3080a0b5f6)" style="fill: #ff7f0e"/>
   </g>
   <g id="patch_8">
    <path d="M 556.878788 512.64 
L 622.636364 512.64 
L 622.636364 417.386846 
L 556.878788 417.386846 
z
" clip-path="url(#p3080a0b5f6)" style="fill: #ff7f0e"/>
   </g>
   <g id="matplotlib.axis_1">
    <g id="xtick_1">
     <g id="line2d_1">
      <defs>
       <path id="m273fc38674" d="M 0 0 
L 0 3.5 
" style="stroke: #000000; stroke-width: 0.8"/>
      </defs>
      <g>
       <use xlink:href="#m273fc38674" x="181.121212" y="512.64" style="stroke: #000000; stroke-width: 0.8"/>
      </g>
     </g>
     <g id="text_1">
      <!-- HRNet -->
      <g transform="translate(165.725118 526.84) scale(0.1 -0.1)">
       <defs>
        <path id="STSongti-SC-Black-48" d="M 3584 3955 
Q 3584 4090 3552 4138 
Q 3520 4186 3443 4198 
L 3136 4237 
L 3136 4403 
Q 3258 4390 3517 4384 
Q 3776 4378 4051 4378 
Q 4326 4378 4585 4384 
Q 4845 4390 4960 4403 
L 4960 4237 
L 4538 4173 
Q 4454 4160 4428 4115 
Q 4403 4070 4403 3949 
L 4403 883 
Q 4403 742 4432 691 
Q 4461 640 4576 614 
L 5037 525 
L 5037 358 
Q 4877 371 4605 377 
Q 4333 384 4070 384 
Q 3942 384 3804 384 
Q 3667 384 3536 381 
Q 3405 378 3289 371 
Q 3174 365 3091 358 
L 3091 525 
L 3456 589 
Q 3533 602 3558 666 
Q 3584 730 3584 883 
L 3584 2253 
L 1606 2253 
L 1606 883 
Q 1606 723 1632 662 
Q 1658 602 1741 589 
L 2106 525 
L 2106 358 
Q 2022 365 1907 371 
Q 1792 378 1661 381 
Q 1530 384 1389 384 
Q 1248 384 1120 384 
Q 864 384 592 377 
Q 320 371 160 358 
L 160 525 
L 621 614 
Q 723 634 755 691 
Q 787 749 787 883 
L 787 3955 
Q 787 4090 755 4138 
Q 723 4186 646 4198 
L 339 4237 
L 339 4403 
Q 461 4390 723 4384 
Q 986 4378 1274 4378 
Q 1555 4378 1817 4384 
Q 2080 4390 2195 4403 
L 2195 4237 
L 1741 4173 
Q 1658 4160 1632 4112 
Q 1606 4064 1606 3949 
L 1606 2547 
L 3584 2547 
L 3584 3955 
z
" transform="scale(0.015625)"/>
        <path id="STSongti-SC-Black-52" d="M 160 544 
L 365 582 
Q 550 602 611 656 
Q 672 710 672 915 
L 672 3763 
Q 672 3859 665 3932 
Q 659 4006 624 4054 
Q 589 4102 518 4131 
Q 448 4160 320 4173 
L 186 4186 
Q 186 4237 182 4285 
Q 179 4333 179 4384 
Q 307 4384 377 4384 
Q 448 4384 493 4387 
Q 538 4390 573 4396 
Q 608 4403 672 4403 
L 1645 4448 
Q 1709 4448 1769 4451 
Q 1830 4454 1888 4454 
Q 2227 4454 2528 4406 
Q 2829 4358 3056 4240 
Q 3283 4122 3417 3923 
Q 3552 3725 3552 3430 
Q 3552 3238 3497 3100 
Q 3443 2963 3340 2851 
Q 3238 2739 3088 2649 
Q 2938 2560 2746 2464 
L 3424 1312 
Q 3578 1050 3686 912 
Q 3795 774 3900 704 
Q 4006 634 4124 611 
Q 4243 589 4410 563 
L 4410 378 
Q 4275 384 4118 384 
Q 3962 384 3782 384 
Q 3693 384 3561 384 
Q 3430 384 3302 384 
Q 3174 384 3072 381 
Q 2970 378 2938 378 
L 2016 2125 
Q 1952 2221 1878 2272 
Q 1805 2323 1696 2323 
L 1498 2323 
L 1498 954 
Q 1498 800 1558 729 
Q 1619 659 1773 621 
L 2086 544 
L 2086 358 
Q 1856 371 1597 377 
Q 1338 384 1085 384 
Q 832 384 592 377 
Q 352 371 160 358 
L 160 544 
z
M 1498 2573 
Q 1824 2560 2045 2614 
Q 2266 2669 2400 2768 
Q 2534 2867 2592 3011 
Q 2650 3155 2650 3328 
Q 2650 3731 2458 3948 
Q 2266 4166 1773 4166 
Q 1722 4166 1638 4163 
Q 1555 4160 1498 4154 
L 1498 2573 
z
" transform="scale(0.015625)"/>
        <path id="STSongti-SC-Black-4e" d="M 1114 902 
Q 1114 742 1152 688 
Q 1190 634 1312 621 
L 1818 557 
L 1818 365 
Q 1434 384 1050 384 
Q 666 384 160 365 
L 160 557 
L 512 621 
Q 730 659 790 710 
Q 851 762 851 902 
L 851 3482 
Q 851 3776 787 3920 
Q 723 4064 544 4096 
L 166 4154 
L 166 4384 
L 1082 4384 
Q 1229 4384 1321 4384 
Q 1414 4384 1481 4371 
Q 1549 4358 1600 4323 
Q 1651 4288 1722 4218 
L 4096 1709 
L 4096 3802 
Q 4096 3974 4041 4048 
Q 3987 4122 3866 4134 
L 3386 4198 
L 3386 4403 
Q 3565 4384 4077 4384 
Q 4333 4384 4560 4387 
Q 4787 4390 4877 4403 
L 4877 4198 
L 4499 4173 
Q 4390 4160 4368 4067 
Q 4346 3974 4346 3802 
L 4346 301 
L 4192 301 
L 1114 3578 
L 1114 902 
z
" transform="scale(0.015625)"/>
        <path id="STSongti-SC-Black-65" d="M 2515 1888 
L 928 1888 
Q 915 1824 912 1811 
Q 909 1798 909 1734 
Q 909 1530 966 1360 
Q 1024 1190 1129 1065 
Q 1235 941 1385 870 
Q 1536 800 1715 800 
Q 1939 800 2128 861 
Q 2317 922 2528 1126 
L 2554 1030 
Q 2477 883 2377 748 
Q 2278 614 2137 512 
Q 1997 410 1808 346 
Q 1619 282 1363 282 
Q 1094 282 870 374 
Q 646 467 489 640 
Q 333 813 246 1056 
Q 160 1299 160 1600 
Q 160 1901 253 2147 
Q 346 2394 515 2570 
Q 685 2746 928 2842 
Q 1171 2938 1472 2938 
Q 1747 2938 1939 2854 
Q 2131 2771 2256 2627 
Q 2381 2483 2441 2291 
Q 2502 2099 2515 1888 
z
M 960 2125 
L 1562 2125 
Q 1734 2125 1734 2291 
Q 1734 2477 1676 2608 
Q 1619 2739 1446 2739 
Q 1088 2739 960 2125 
z
" transform="scale(0.015625)"/>
        <path id="STSongti-SC-Black-74" d="M 1114 3469 
L 1254 3469 
Q 1254 3296 1257 3126 
Q 1261 2957 1261 2784 
L 2061 2803 
L 2061 2502 
L 1261 2477 
L 1261 1325 
Q 1261 1043 1331 908 
Q 1402 774 1626 774 
Q 1722 774 1837 796 
Q 1952 819 2086 934 
L 2144 845 
Q 2099 755 2022 656 
Q 1946 557 1834 473 
Q 1722 390 1581 336 
Q 1440 282 1261 282 
Q 902 282 720 464 
Q 538 646 538 1088 
L 538 2464 
Q 448 2464 365 2461 
Q 282 2458 192 2458 
Q 102 2458 99 2541 
Q 96 2624 186 2662 
Q 326 2720 444 2784 
Q 563 2848 640 2912 
Q 678 2944 745 2998 
Q 813 3053 883 3123 
Q 954 3194 1014 3283 
Q 1075 3373 1114 3469 
z
" transform="scale(0.015625)"/>
       </defs>
       <use xlink:href="#STSongti-SC-Black-48"/>
       <use xlink:href="#STSongti-SC-Black-52" x="81.199982"/>
       <use xlink:href="#STSongti-SC-Black-4e" x="152.599976"/>
       <use xlink:href="#STSongti-SC-Black-65" x="231.299957"/>
       <use xlink:href="#STSongti-SC-Black-74" x="273.699951"/>
      </g>
     </g>
    </g>
    <g id="xtick_2">
     <g id="line2d_2">
      <g>
       <use xlink:href="#m273fc38674" x="369" y="512.64" style="stroke: #000000; stroke-width: 0.8"/>
      </g>
     </g>
     <g id="text_2">
      <!-- HRNet-3阶段 -->
      <g transform="translate(339.69375 527.69) scale(0.1 -0.1)">
       <defs>
        <path id="STSongti-SC-Black-2d" d="M 243 1773 
L 1760 1773 
L 1760 1498 
L 243 1498 
L 243 1773 
z
" transform="scale(0.015625)"/>
        <path id="STSongti-SC-Black-33" d="M 576 3430 
L 474 3526 
Q 550 3731 646 3900 
Q 742 4070 876 4192 
Q 1011 4314 1193 4381 
Q 1376 4448 1619 4448 
Q 1779 4448 1939 4409 
Q 2099 4371 2224 4288 
Q 2349 4205 2425 4083 
Q 2502 3962 2502 3789 
Q 2502 3539 2281 3289 
Q 2061 3040 1683 2822 
Q 1939 2842 2153 2771 
Q 2368 2701 2518 2560 
Q 2669 2419 2752 2214 
Q 2835 2010 2835 1760 
Q 2835 1446 2707 1174 
Q 2579 902 2355 704 
Q 2131 506 1833 394 
Q 1536 282 1203 282 
Q 762 282 518 403 
Q 275 525 275 717 
Q 275 787 323 854 
Q 371 922 457 950 
Q 544 979 653 950 
Q 762 922 890 800 
Q 986 704 1053 640 
Q 1120 576 1174 541 
Q 1229 506 1277 490 
Q 1325 474 1389 474 
Q 1581 474 1725 570 
Q 1869 666 1965 826 
Q 2061 986 2105 1184 
Q 2150 1382 2150 1587 
Q 2150 1997 1955 2198 
Q 1760 2400 1498 2400 
Q 1331 2400 1206 2345 
Q 1082 2291 954 2182 
L 845 2330 
Q 909 2387 979 2444 
Q 1050 2502 1126 2560 
Q 1478 2822 1676 3030 
Q 1875 3238 1875 3437 
Q 1875 3686 1731 3824 
Q 1587 3962 1306 3962 
Q 1101 3962 902 3843 
Q 704 3725 576 3430 
z
" transform="scale(0.015625)"/>
        <path id="STSongti-SC-Black-9636" d="M 4365 4685 
Q 3974 3699 3219 3034 
Q 3878 2976 3968 2947 
Q 4058 2918 4058 2857 
Q 4058 2797 3987 2758 
Q 3917 2720 3901 2653 
Q 3885 2586 3878 2445 
Q 3859 1658 3776 1136 
Q 3693 614 3513 284 
Q 3334 -45 3049 -240 
Q 2765 -435 2259 -569 
Q 1754 -704 1536 -704 
Q 1485 -704 1485 -678 
Q 1485 -653 1542 -634 
Q 2214 -403 2537 -108 
Q 2861 186 2985 608 
Q 3110 1030 3110 1622 
Q 3110 2214 3085 2918 
Q 2765 2662 2394 2445 
Q 2694 2054 2694 1622 
Q 2694 1190 2441 979 
Q 2189 768 1875 768 
Q 1677 768 1677 934 
Q 1677 1280 1267 1408 
L 1267 -448 
Q 1267 -518 1222 -553 
Q 1178 -589 979 -624 
Q 781 -659 646 -659 
Q 499 -659 499 -557 
L 512 -301 
Q 518 -160 518 282 
L 518 4314 
Q 518 4774 493 4986 
Q 954 4864 1293 4717 
L 1856 4717 
Q 1990 5018 2060 5018 
Q 2131 5018 2486 4813 
Q 2842 4608 2918 4537 
Q 2995 4467 2995 4403 
Q 2995 4307 2848 4307 
Q 2765 4307 2697 4256 
Q 2630 4205 2374 3901 
Q 2118 3597 1702 3053 
Q 2099 2810 2330 2528 
Q 3450 3789 3565 5254 
Q 3968 5197 4230 5149 
Q 4493 5101 4557 5085 
Q 4621 5069 4646 5043 
Q 4672 5018 4672 4970 
Q 4672 4922 4617 4877 
Q 4563 4832 4467 4819 
Q 4742 4237 5129 3846 
Q 5517 3456 6221 3162 
Q 6298 3130 6298 3107 
Q 6298 3085 6234 3059 
Q 6054 2989 5888 2822 
Q 5722 2656 5686 2541 
Q 5651 2426 5600 2426 
Q 5549 2426 5481 2486 
Q 5414 2547 5242 2726 
Q 5229 2714 5178 2682 
L 5178 205 
Q 5178 -102 5184 -224 
L 5190 -454 
Q 5190 -544 5004 -621 
Q 4819 -698 4589 -698 
Q 4422 -698 4422 -576 
L 4422 2445 
Q 4422 2765 4410 3014 
Q 4800 3002 5062 2931 
Q 4416 3680 4365 4685 
z
M 1267 1472 
Q 1382 1466 1466 1466 
Q 1741 1466 1849 1565 
Q 1958 1664 1958 1952 
Q 1958 2547 1523 2982 
Q 1792 3962 1901 4506 
L 1376 4506 
Q 1338 4454 1267 4435 
L 1267 1472 
z
" transform="scale(0.015625)"/>
        <path id="STSongti-SC-Black-6bb5" d="M 1510 4659 
Q 2131 4947 2592 5338 
Q 2810 5139 3008 4899 
Q 3206 4659 3206 4601 
Q 3206 4544 2998 4553 
Q 2790 4563 1619 4467 
Q 1600 4416 1523 4378 
L 1523 3501 
L 2125 3501 
Q 2342 3974 2445 3974 
Q 2522 3974 2794 3718 
Q 3066 3462 3066 3376 
Q 3066 3290 2931 3290 
L 1523 3290 
L 1523 2323 
L 2061 2323 
L 2259 2598 
Q 2362 2739 2381 2758 
Q 2400 2778 2426 2778 
Q 2470 2778 2650 2618 
Q 2950 2874 3049 3120 
Q 3149 3366 3181 3824 
Q 3213 4282 3213 4531 
Q 3213 4781 3187 5133 
Q 3584 5024 3930 4870 
L 4365 4870 
Q 4435 5037 4489 5126 
Q 4544 5216 4608 5216 
Q 4698 5216 5059 4998 
Q 5421 4781 5421 4701 
Q 5421 4621 5178 4557 
L 5178 3558 
Q 5178 3437 5309 3437 
Q 5440 3437 5606 3603 
Q 5638 3635 5677 3635 
Q 5766 3635 5993 3446 
Q 6221 3258 6221 3107 
Q 6221 2957 5997 2886 
Q 5773 2816 5331 2816 
Q 4890 2816 4739 2870 
Q 4589 2925 4512 3059 
Q 4435 3194 4435 3411 
L 4435 4659 
L 3904 4659 
Q 3878 4557 3878 4499 
Q 3840 3546 3568 3174 
Q 3296 2803 2739 2541 
Q 3053 2246 3053 2157 
Q 3053 2112 2950 2112 
L 1523 2112 
L 1523 1370 
Q 1882 1408 2499 1494 
Q 3117 1581 3155 1581 
Q 3194 1581 3194 1552 
Q 3194 1523 3091 1478 
L 1523 838 
L 1523 -352 
Q 1523 -422 1472 -457 
Q 1421 -493 1197 -550 
Q 973 -608 864 -608 
Q 794 -608 794 -461 
L 800 314 
L 800 512 
Q 627 435 572 400 
Q 518 365 489 365 
Q 461 365 445 390 
Q 429 416 339 707 
Q 250 998 192 1248 
L 800 1293 
L 800 4339 
Q 800 4659 787 4909 
Q 1222 4800 1510 4659 
z
M 4122 314 
Q 3501 -109 2755 -342 
Q 2010 -576 1837 -576 
Q 1779 -576 1779 -547 
Q 1779 -518 1894 -474 
Q 3149 6 3834 710 
Q 3469 1331 3347 2214 
Q 3283 2195 3226 2157 
L 3059 2458 
Q 3213 2438 3379 2438 
L 4646 2438 
Q 4755 2618 4793 2666 
Q 4832 2714 4870 2714 
Q 4960 2714 5376 2496 
Q 5792 2278 5792 2157 
Q 5792 2080 5613 2048 
Q 5549 2035 5510 2003 
Q 5472 1971 5427 1869 
Q 5126 1203 4646 736 
Q 5312 288 6131 122 
Q 6195 109 6195 73 
Q 6195 38 6106 13 
Q 5670 -122 5446 -608 
Q 5414 -672 5370 -672 
Q 5286 -672 4851 -361 
Q 4416 -51 4122 314 
z
M 4173 1126 
Q 4512 1619 4678 2227 
L 3526 2227 
Q 3693 1626 4173 1126 
z
" transform="scale(0.015625)"/>
       </defs>
       <use xlink:href="#STSongti-SC-Black-48"/>
       <use xlink:href="#STSongti-SC-Black-52" x="81.199982"/>
       <use xlink:href="#STSongti-SC-Black-4e" x="152.599976"/>
       <use xlink:href="#STSongti-SC-Black-65" x="231.299957"/>
       <use xlink:href="#STSongti-SC-Black-74" x="273.699951"/>
       <use xlink:href="#STSongti-SC-Black-2d" x="307.899948"/>
       <use xlink:href="#STSongti-SC-Black-33" x="339.199936"/>
       <use xlink:href="#STSongti-SC-Black-9636" x="386.09993"/>
       <use xlink:href="#STSongti-SC-Black-6bb5" x="486.099915"/>
      </g>
     </g>
    </g>
    <g id="xtick_3">
     <g id="line2d_3">
      <g>
       <use xlink:href="#m273fc38674" x="556.878788" y="512.64" style="stroke: #000000; stroke-width: 0.8"/>
      </g>
     </g>
     <g id="text_3">
      <!-- BiTNet -->
      <g transform="translate(541.418632 526.84) scale(0.1 -0.1)">
       <defs>
        <path id="STSongti-SC-Black-42" d="M 160 4173 
L 160 4365 
L 538 4384 
Q 1139 4416 1523 4432 
Q 1907 4448 2010 4448 
Q 2285 4448 2563 4406 
Q 2842 4365 3062 4262 
Q 3283 4160 3420 3984 
Q 3558 3808 3558 3539 
Q 3558 3386 3491 3248 
Q 3424 3110 3309 3001 
Q 3194 2893 3037 2813 
Q 2880 2733 2701 2694 
Q 2963 2656 3187 2582 
Q 3411 2509 3574 2381 
Q 3738 2253 3830 2061 
Q 3923 1869 3923 1594 
Q 3923 1325 3776 1101 
Q 3629 877 3376 717 
Q 3123 557 2790 467 
Q 2458 378 2086 378 
Q 1734 378 1388 381 
Q 1043 384 691 384 
L 173 384 
L 173 582 
L 493 659 
Q 608 691 662 755 
Q 717 819 717 1005 
L 717 3923 
Q 717 3974 713 4006 
Q 710 4038 681 4064 
Q 653 4090 595 4106 
Q 538 4122 429 4134 
L 160 4173 
z
M 1510 2714 
Q 1562 2701 1670 2697 
Q 1779 2694 1990 2694 
Q 2349 2694 2531 2905 
Q 2714 3117 2714 3520 
Q 2714 3686 2656 3811 
Q 2598 3936 2499 4022 
Q 2400 4109 2269 4153 
Q 2138 4198 1997 4198 
Q 1741 4198 1510 4141 
L 1510 2714 
z
M 1510 2432 
L 1510 1101 
Q 1510 858 1689 736 
Q 1869 614 2189 614 
Q 2573 614 2793 854 
Q 3014 1094 3014 1491 
Q 3014 1978 2758 2218 
Q 2502 2458 2003 2458 
Q 1894 2458 1766 2451 
Q 1638 2445 1510 2432 
z
" transform="scale(0.015625)"/>
        <path id="STSongti-SC-Black-69" d="M 986 4320 
Q 1152 4320 1270 4195 
Q 1389 4070 1389 3904 
Q 1389 3757 1270 3635 
Q 1152 3514 979 3514 
Q 813 3514 701 3626 
Q 589 3738 589 3904 
Q 589 4070 704 4195 
Q 819 4320 986 4320 
z
M 1632 358 
Q 1530 371 1325 377 
Q 1120 384 864 384 
Q 608 384 403 377 
Q 198 371 96 358 
L 96 525 
L 339 589 
Q 538 627 538 826 
L 538 1978 
Q 538 2131 461 2201 
Q 384 2272 154 2323 
L 154 2477 
Q 262 2502 403 2550 
Q 544 2598 678 2659 
Q 813 2720 928 2793 
Q 1043 2867 1107 2944 
Q 1152 2944 1190 2941 
Q 1229 2938 1274 2938 
L 1274 806 
Q 1274 710 1302 662 
Q 1331 614 1414 595 
L 1632 525 
L 1632 358 
z
" transform="scale(0.015625)"/>
        <path id="STSongti-SC-Black-54" d="M 326 4518 
Q 371 4691 416 4688 
Q 461 4685 531 4557 
Q 563 4493 592 4457 
Q 621 4422 653 4406 
Q 685 4390 733 4387 
Q 781 4384 851 4384 
L 3328 4384 
Q 3450 4384 3520 4390 
Q 3590 4397 3632 4419 
Q 3674 4442 3699 4477 
Q 3725 4512 3750 4570 
Q 3808 4691 3859 4691 
Q 3942 4691 3942 4563 
L 3930 3418 
Q 3930 3366 3914 3337 
Q 3898 3309 3869 3318 
Q 3840 3328 3808 3382 
Q 3776 3437 3750 3565 
Q 3718 3686 3686 3779 
Q 3654 3872 3590 3936 
Q 3526 4000 3424 4029 
Q 3322 4058 3149 4058 
L 2496 4058 
L 2496 960 
Q 2496 794 2537 733 
Q 2579 672 2714 640 
L 3213 531 
L 3213 365 
Q 3130 371 2995 374 
Q 2861 378 2697 381 
Q 2534 384 2348 384 
Q 2163 384 1971 384 
Q 1786 384 1606 384 
Q 1427 384 1280 381 
Q 1133 378 1030 374 
Q 928 371 890 365 
L 890 531 
L 1376 621 
Q 1562 653 1619 733 
Q 1677 813 1677 966 
L 1677 4058 
L 1011 4058 
Q 909 4064 832 4041 
Q 755 4019 675 3958 
Q 595 3898 505 3786 
Q 416 3674 294 3494 
Q 205 3373 163 3341 
Q 122 3309 106 3337 
Q 90 3366 99 3440 
Q 109 3514 128 3603 
L 326 4518 
z
" transform="scale(0.015625)"/>
       </defs>
       <use xlink:href="#STSongti-SC-Black-42"/>
       <use xlink:href="#STSongti-SC-Black-69" x="63.799988"/>
       <use xlink:href="#STSongti-SC-Black-54" x="90.799973"/>
       <use xlink:href="#STSongti-SC-Black-4e" x="153.899963"/>
       <use xlink:href="#STSongti-SC-Black-65" x="232.599945"/>
       <use xlink:href="#STSongti-SC-Black-74" x="274.999939"/>
      </g>
     </g>
    </g>
    <g id="text_4">
     <!-- 模型 -->
     <g transform="translate(359 540.969687) scale(0.1 -0.1)">
      <defs>
       <path id="STSongti-SC-Black-6a21" d="M 4378 4141 
L 3776 4141 
L 3776 3738 
Q 3776 3674 3731 3638 
Q 3686 3603 3497 3561 
Q 3309 3520 3142 3520 
Q 3091 3520 3091 3578 
L 3104 3789 
Q 3110 3917 3110 4141 
L 2624 4141 
Q 2496 4141 2394 4070 
L 2227 4371 
Q 2381 4352 2547 4352 
L 3110 4352 
L 3110 4768 
Q 3110 4979 3091 5235 
Q 3642 5197 3773 5158 
Q 3904 5120 3904 5069 
Q 3904 5018 3776 4954 
L 3776 4352 
L 4378 4352 
L 4378 4896 
Q 4378 5037 4365 5235 
Q 4934 5197 5068 5161 
Q 5203 5126 5203 5068 
Q 5203 5011 5082 4928 
L 5082 4352 
L 5235 4352 
Q 5427 4678 5475 4742 
Q 5523 4806 5562 4806 
Q 5619 4806 5920 4540 
Q 6221 4275 6221 4208 
Q 6221 4141 6086 4141 
L 5082 4141 
L 5082 4051 
Q 5082 3917 5088 3859 
L 5094 3744 
Q 5094 3661 4867 3593 
Q 4640 3526 4528 3526 
Q 4416 3526 4397 3542 
Q 4378 3558 4378 3597 
L 4378 4141 
z
M 2554 3507 
L 1773 3507 
L 1773 3130 
Q 2131 3002 2326 2797 
Q 2522 2592 2522 2400 
Q 2522 2208 2403 2080 
Q 2285 1952 2144 1952 
Q 1888 1952 1888 2240 
L 1894 2445 
Q 1894 2790 1773 2957 
L 1773 -448 
Q 1773 -512 1709 -553 
Q 1645 -595 1469 -640 
Q 1293 -685 1133 -685 
Q 1075 -685 1075 -614 
L 1082 -352 
Q 1094 -83 1094 243 
L 1094 2003 
Q 992 1760 637 1321 
Q 282 883 218 883 
Q 192 883 192 912 
Q 192 941 224 986 
Q 550 1510 707 2051 
Q 864 2592 973 3507 
L 525 3507 
Q 397 3507 294 3437 
L 128 3738 
Q 282 3718 448 3718 
L 1094 3718 
L 1094 4486 
Q 1094 4909 1075 5216 
Q 1338 5210 1613 5165 
Q 1888 5120 1888 5037 
Q 1888 4986 1773 4928 
L 1773 3718 
L 1875 3718 
Q 2003 3936 2076 4035 
Q 2150 4134 2189 4134 
Q 2259 4134 2544 3875 
Q 2829 3616 2810 3546 
Q 3078 3462 3334 3347 
L 4787 3347 
Q 4883 3514 4934 3578 
Q 4986 3642 5024 3642 
Q 5088 3642 5398 3459 
Q 5709 3277 5773 3225 
Q 5837 3174 5837 3116 
Q 5837 3059 5632 2982 
L 5632 2150 
Q 5632 2042 5638 1958 
L 5651 1818 
Q 5651 1786 5632 1766 
Q 5613 1747 5494 1699 
Q 5376 1651 5248 1628 
Q 5120 1606 5014 1606 
Q 4909 1606 4893 1625 
Q 4877 1645 4877 1702 
L 4877 1715 
L 4512 1715 
Q 4486 1683 4438 1667 
Q 4390 1651 4377 1616 
Q 4365 1581 4336 1417 
Q 4307 1254 4282 1152 
L 5082 1152 
Q 5274 1466 5315 1523 
Q 5357 1581 5395 1581 
Q 5466 1581 5824 1337 
Q 6182 1094 6182 1017 
Q 6182 941 6042 941 
L 4435 941 
Q 4646 608 5145 381 
Q 5645 154 6214 102 
Q 6298 90 6298 64 
Q 6298 38 6227 6 
Q 6035 -83 5923 -220 
Q 5811 -358 5734 -602 
Q 5715 -678 5651 -678 
Q 5504 -678 4960 -256 
Q 4416 166 4294 941 
L 4218 941 
Q 4064 493 3859 256 
Q 3654 19 3302 -201 
Q 2950 -422 2451 -563 
Q 1952 -704 1850 -704 
Q 1818 -704 1818 -681 
Q 1818 -659 1907 -627 
Q 2579 -358 2956 6 
Q 3334 371 3501 941 
L 2464 941 
Q 2336 941 2234 870 
L 2067 1171 
Q 2221 1152 2387 1152 
L 3552 1152 
Q 3590 1427 3603 1715 
L 3245 1715 
Q 3245 1658 3232 1638 
Q 3219 1619 3113 1577 
Q 3008 1536 2857 1507 
Q 2707 1478 2592 1478 
Q 2547 1478 2554 1542 
Q 2566 1690 2566 2016 
L 2566 3085 
Q 2566 3251 2554 3507 
z
M 4877 2650 
L 4877 3136 
L 3373 3136 
Q 3334 3104 3245 3085 
L 3245 2650 
L 4877 2650 
z
M 4877 1926 
L 4877 2438 
L 3245 2438 
L 3245 1926 
L 4877 1926 
z
" transform="scale(0.015625)"/>
       <path id="STSongti-SC-Black-578b" d="M 1158 4589 
L 768 4589 
Q 640 4589 538 4518 
L 371 4819 
Q 525 4800 691 4800 
L 2950 4800 
Q 3066 5011 3123 5091 
Q 3181 5171 3222 5171 
Q 3264 5171 3437 5037 
L 3718 4813 
Q 3834 4723 3834 4656 
Q 3834 4589 3706 4589 
L 3155 4589 
Q 3130 4557 3078 4525 
L 3078 3514 
Q 3251 3802 3280 3840 
Q 3309 3878 3341 3878 
Q 3443 3878 3770 3558 
L 3770 4006 
Q 3770 4294 3757 4518 
Q 4243 4454 4406 4416 
Q 4570 4378 4570 4320 
Q 4570 4262 4442 4192 
L 4442 3187 
L 4454 2611 
Q 4454 2541 4409 2505 
Q 4365 2470 4128 2416 
Q 3891 2362 3789 2362 
Q 3750 2362 3750 2419 
L 3757 2662 
Q 3770 2950 3770 3194 
L 3770 3302 
L 3078 3302 
L 3078 2586 
Q 3078 2355 3085 2227 
L 3091 1939 
Q 3091 1869 3066 1837 
Q 3616 1773 3616 1683 
Q 3616 1638 3507 1568 
L 3507 1056 
L 4339 1056 
Q 4518 1338 4634 1478 
Q 4595 1715 4486 1836 
Q 4378 1958 3910 2086 
Q 3846 2106 3846 2128 
Q 3846 2150 3936 2150 
Q 4371 2157 4553 2176 
Q 4736 2195 4787 2246 
Q 4838 2298 4838 2419 
L 4838 4646 
Q 4838 4966 4826 5216 
Q 5210 5178 5478 5123 
Q 5747 5069 5747 4995 
Q 5747 4922 5619 4858 
L 5619 2195 
Q 5619 1939 5558 1804 
Q 5498 1670 5328 1596 
Q 5158 1523 4794 1459 
Q 5056 1274 5219 1117 
Q 5382 960 5382 902 
Q 5382 845 5267 845 
L 3507 845 
L 3507 -58 
L 4928 -58 
Q 5210 416 5264 477 
Q 5318 538 5370 538 
Q 5466 538 5827 214 
Q 6189 -109 6189 -189 
Q 6189 -269 6067 -269 
L 493 -269 
Q 365 -269 262 -339 
L 96 -38 
Q 250 -58 416 -58 
L 2701 -58 
L 2701 845 
L 1427 845 
Q 1299 845 1197 774 
L 1030 1075 
Q 1184 1056 1350 1056 
L 2701 1056 
L 2701 1318 
Q 2701 1638 2694 1715 
Q 2470 1683 2381 1683 
Q 2342 1683 2342 1779 
L 2342 3302 
L 1850 3302 
Q 1786 2515 1555 2108 
Q 1325 1702 797 1417 
Q 269 1133 186 1133 
Q 160 1133 160 1155 
Q 160 1178 224 1229 
Q 608 1542 793 1779 
Q 979 2016 1072 2361 
Q 1165 2707 1178 3302 
L 512 3302 
Q 384 3302 282 3232 
L 115 3533 
Q 269 3514 435 3514 
L 1178 3514 
Q 1184 3789 1158 4589 
z
M 2342 4589 
L 1926 4589 
Q 1894 4544 1894 4410 
Q 1882 3770 1862 3514 
L 2342 3514 
L 2342 4589 
z
" transform="scale(0.015625)"/>
      </defs>
      <use xlink:href="#STSongti-SC-Black-6a21"/>
      <use xlink:href="#STSongti-SC-Black-578b" x="99.999985"/>
     </g>
    </g>
   </g>
   <g id="matplotlib.axis_2">
    <g id="ytick_1">
     <g id="line2d_4">
      <defs>
       <path id="m945eb0b0fe" d="M 0 0 
L -3.5 0 
" style="stroke: #000000; stroke-width: 0.8"/>
      </defs>
      <g>
       <use xlink:href="#m945eb0b0fe" x="90" y="512.64" style="stroke: #000000; stroke-width: 0.8"/>
      </g>
     </g>
     <g id="text_5">
      <!-- 0 -->
      <g transform="translate(78.309375 516.24) scale(0.1 -0.1)">
       <defs>
        <path id="STSongti-SC-Black-30" d="M 1517 4448 
Q 1792 4448 2045 4285 
Q 2298 4122 2486 3840 
Q 2675 3558 2787 3177 
Q 2899 2797 2899 2362 
Q 2899 1933 2790 1555 
Q 2682 1178 2493 893 
Q 2304 608 2054 445 
Q 1805 282 1523 282 
Q 1248 282 995 442 
Q 742 602 550 880 
Q 358 1158 246 1539 
Q 134 1920 134 2355 
Q 134 2797 246 3181 
Q 358 3565 547 3846 
Q 736 4128 985 4288 
Q 1235 4448 1517 4448 
z
M 1517 518 
Q 1869 518 1997 966 
Q 2125 1414 2125 2362 
Q 2125 3309 1993 3760 
Q 1862 4211 1517 4211 
Q 1171 4211 1040 3763 
Q 909 3315 909 2362 
Q 909 518 1517 518 
z
" transform="scale(0.015625)"/>
       </defs>
       <use xlink:href="#STSongti-SC-Black-30"/>
      </g>
     </g>
    </g>
    <g id="ytick_2">
     <g id="line2d_5">
      <g>
       <use xlink:href="#m945eb0b0fe" x="90" y="438.628225" style="stroke: #000000; stroke-width: 0.8"/>
      </g>
     </g>
     <g id="text_6">
      <!-- 5 -->
      <g transform="translate(78.309375 442.228225) scale(0.1 -0.1)">
       <defs>
        <path id="STSongti-SC-Black-35" d="M 2490 3763 
L 1536 3763 
Q 1286 3763 1094 3760 
Q 902 3757 877 3744 
L 819 2880 
Q 960 2950 1145 2982 
Q 1331 3014 1478 3014 
Q 1805 3014 2051 2908 
Q 2298 2803 2464 2627 
Q 2630 2451 2713 2220 
Q 2797 1990 2797 1741 
Q 2797 1414 2662 1145 
Q 2528 877 2310 685 
Q 2093 493 1817 387 
Q 1542 282 1254 282 
Q 1107 282 934 310 
Q 762 339 611 393 
Q 461 448 361 528 
Q 262 608 262 717 
Q 262 794 313 854 
Q 365 915 435 950 
Q 506 986 582 986 
Q 659 986 710 941 
Q 864 813 963 723 
Q 1062 634 1139 576 
Q 1216 518 1286 492 
Q 1357 467 1453 467 
Q 1632 467 1766 550 
Q 1901 634 1993 778 
Q 2086 922 2134 1114 
Q 2182 1306 2182 1523 
Q 2182 1728 2118 1897 
Q 2054 2067 1939 2192 
Q 1824 2317 1667 2387 
Q 1510 2458 1318 2458 
Q 1101 2458 957 2410 
Q 813 2362 723 2272 
L 614 2272 
L 736 4384 
L 1542 4384 
Q 1792 4384 1952 4384 
Q 2112 4384 2205 4400 
Q 2298 4416 2336 4451 
Q 2374 4486 2387 4557 
L 2547 4557 
L 2490 3763 
z
" transform="scale(0.015625)"/>
       </defs>
       <use xlink:href="#STSongti-SC-Black-35"/>
      </g>
     </g>
    </g>
    <g id="ytick_3">
     <g id="line2d_6">
      <g>
       <use xlink:href="#m945eb0b0fe" x="90" y="364.616451" style="stroke: #000000; stroke-width: 0.8"/>
      </g>
     </g>
     <g id="text_7">
      <!-- 10 -->
      <g transform="translate(73.61875 368.216451) scale(0.1 -0.1)">
       <defs>
        <path id="STSongti-SC-Black-31" d="M 2464 365 
Q 2298 371 2045 377 
Q 1792 384 1523 384 
Q 1254 384 1001 377 
Q 749 371 582 365 
L 582 550 
L 979 608 
Q 1203 659 1203 858 
L 1203 3840 
L 442 3347 
L 333 3546 
Q 442 3616 608 3718 
Q 774 3821 960 3942 
Q 1146 4064 1331 4192 
Q 1517 4320 1670 4448 
L 1882 4448 
L 1882 858 
Q 1882 634 2106 602 
L 2464 550 
L 2464 365 
z
" transform="scale(0.015625)"/>
       </defs>
       <use xlink:href="#STSongti-SC-Black-31"/>
       <use xlink:href="#STSongti-SC-Black-30" x="46.899994"/>
      </g>
     </g>
    </g>
    <g id="ytick_4">
     <g id="line2d_7">
      <g>
       <use xlink:href="#m945eb0b0fe" x="90" y="290.604676" style="stroke: #000000; stroke-width: 0.8"/>
      </g>
     </g>
     <g id="text_8">
      <!-- 15 -->
      <g transform="translate(73.61875 294.204676) scale(0.1 -0.1)">
       <use xlink:href="#STSongti-SC-Black-31"/>
       <use xlink:href="#STSongti-SC-Black-35" x="46.899994"/>
      </g>
     </g>
    </g>
    <g id="ytick_5">
     <g id="line2d_8">
      <g>
       <use xlink:href="#m945eb0b0fe" x="90" y="216.592902" style="stroke: #000000; stroke-width: 0.8"/>
      </g>
     </g>
     <g id="text_9">
      <!-- 20 -->
      <g transform="translate(73.61875 220.192902) scale(0.1 -0.1)">
       <defs>
        <path id="STSongti-SC-Black-32" d="M 2726 365 
Q 2496 371 2227 377 
Q 1958 384 1542 384 
Q 1120 384 777 381 
Q 435 378 211 365 
Q 230 518 262 659 
Q 294 800 377 957 
Q 461 1114 605 1299 
Q 749 1485 992 1734 
L 1229 1978 
Q 1478 2227 1625 2412 
Q 1773 2598 1849 2748 
Q 1926 2899 1945 3033 
Q 1965 3168 1965 3322 
Q 1965 3622 1779 3801 
Q 1594 3981 1280 3981 
Q 954 3981 746 3769 
Q 538 3558 461 3162 
L 262 3238 
Q 352 3827 694 4137 
Q 1037 4448 1549 4448 
Q 1779 4448 1984 4384 
Q 2189 4320 2342 4195 
Q 2496 4070 2589 3888 
Q 2682 3706 2682 3469 
Q 2682 3219 2592 3008 
Q 2502 2797 2348 2608 
Q 2195 2419 1993 2246 
Q 1792 2074 1574 1907 
L 1382 1754 
Q 1216 1619 1030 1427 
Q 845 1235 685 979 
L 2074 979 
Q 2234 979 2317 1011 
Q 2400 1043 2448 1116 
Q 2496 1190 2531 1302 
Q 2566 1414 2624 1568 
L 2822 1568 
L 2726 365 
z
" transform="scale(0.015625)"/>
       </defs>
       <use xlink:href="#STSongti-SC-Black-32"/>
       <use xlink:href="#STSongti-SC-Black-30" x="46.899994"/>
      </g>
     </g>
    </g>
    <g id="ytick_6">
     <g id="line2d_9">
      <g>
       <use xlink:href="#m945eb0b0fe" x="90" y="142.581127" style="stroke: #000000; stroke-width: 0.8"/>
      </g>
     </g>
     <g id="text_10">
      <!-- 25 -->
      <g transform="translate(73.61875 146.181127) scale(0.1 -0.1)">
       <use xlink:href="#STSongti-SC-Black-32"/>
       <use xlink:href="#STSongti-SC-Black-35" x="46.899994"/>
      </g>
     </g>
    </g>
    <g id="text_11">
     <!-- 值 -->
     <g transform="translate(68.228125 295.88) rotate(-90) scale(0.1 -0.1)">
      <defs>
       <path id="STSongti-SC-Black-503c" d="M 3162 3347 
L 3411 3347 
L 3411 4051 
L 2451 4051 
Q 2323 4051 2221 3981 
L 2054 4282 
Q 2208 4262 2374 4262 
L 3418 4262 
L 3418 4678 
Q 3418 4973 3405 5274 
Q 4013 5216 4201 5171 
Q 4390 5126 4390 5065 
Q 4390 5005 4224 4954 
L 4198 4262 
L 4877 4262 
Q 5050 4627 5126 4736 
Q 5203 4845 5251 4845 
Q 5299 4845 5539 4675 
Q 5779 4506 5939 4362 
Q 6099 4218 6099 4134 
Q 6099 4051 5952 4051 
L 4186 4051 
L 4160 3347 
L 4461 3347 
Q 4640 3744 4736 3744 
Q 4774 3744 5059 3584 
Q 5344 3424 5485 3321 
Q 5626 3219 5626 3162 
Q 5626 3072 5389 2995 
L 5389 13 
Q 5510 224 5548 272 
Q 5587 320 5641 320 
Q 5696 320 5872 176 
Q 6048 32 6198 -105 
Q 6349 -243 6349 -326 
Q 6349 -410 6214 -410 
L 2202 -410 
Q 2074 -410 1971 -480 
L 1805 -179 
Q 1958 -198 2125 -198 
L 2458 -198 
L 2458 3014 
Q 2458 3334 2445 3584 
Q 2925 3456 3162 3347 
z
M 3168 2515 
L 4595 2515 
L 4595 3136 
L 3283 3136 
Q 3238 3072 3168 3053 
L 3168 2515 
z
M 4595 2304 
L 3168 2304 
L 3168 1677 
L 4595 1677 
L 4595 2304 
z
M 4595 813 
L 4595 1466 
L 3168 1466 
L 3168 813 
L 4595 813 
z
M 4595 -198 
L 4595 602 
L 3168 602 
L 3168 -198 
L 4595 -198 
z
M 1472 3392 
Q 1888 3354 1888 3258 
Q 1888 3194 1722 3149 
L 1722 -474 
Q 1722 -525 1702 -550 
Q 1683 -576 1577 -621 
Q 1472 -666 1261 -701 
Q 1050 -736 947 -736 
Q 902 -736 902 -672 
L 922 -70 
Q 928 211 928 461 
L 928 2451 
Q 826 2291 563 2006 
Q 301 1722 243 1722 
Q 224 1722 224 1754 
Q 224 1786 262 1856 
Q 666 2573 864 3347 
Q 1062 4122 1190 5216 
Q 1632 5107 1897 5017 
Q 2163 4928 2224 4889 
Q 2285 4851 2285 4806 
Q 2285 4762 2201 4752 
Q 2118 4742 2051 4640 
Q 1984 4538 1795 4109 
Q 1606 3680 1472 3392 
z
" transform="scale(0.015625)"/>
      </defs>
      <use xlink:href="#STSongti-SC-Black-503c"/>
     </g>
    </g>
   </g>
   <g id="patch_9">
    <path d="M 90 512.64 
L 90 69.12 
" style="fill: none; stroke: #000000; stroke-width: 0.8; stroke-linejoin: miter; stroke-linecap: square"/>
   </g>
   <g id="patch_10">
    <path d="M 648 512.64 
L 648 69.12 
" style="fill: none; stroke: #000000; stroke-width: 0.8; stroke-linejoin: miter; stroke-linecap: square"/>
   </g>
   <g id="patch_11">
    <path d="M 90 512.64 
L 648 512.64 
" style="fill: none; stroke: #000000; stroke-width: 0.8; stroke-linejoin: miter; stroke-linecap: square"/>
   </g>
   <g id="patch_12">
    <path d="M 90 69.12 
L 648 69.12 
" style="fill: none; stroke: #000000; stroke-width: 0.8; stroke-linejoin: miter; stroke-linecap: square"/>
   </g>
   <g id="text_12">
    <!-- 28.536 -->
    <g transform="translate(135.420549 88.849375) scale(0.1 -0.1)">
     <defs>
      <path id="STSongti-SC-Black-38" d="M 1069 2368 
Q 282 2758 282 3424 
Q 282 3622 368 3804 
Q 454 3987 617 4131 
Q 781 4275 1005 4361 
Q 1229 4448 1510 4448 
Q 1760 4448 1968 4377 
Q 2176 4307 2326 4185 
Q 2477 4064 2560 3901 
Q 2643 3738 2643 3552 
Q 2643 3366 2588 3232 
Q 2534 3098 2438 2992 
Q 2342 2886 2201 2793 
Q 2061 2701 1888 2598 
Q 2202 2445 2381 2297 
Q 2560 2150 2646 2006 
Q 2733 1862 2752 1718 
Q 2771 1574 2771 1434 
Q 2771 1190 2665 979 
Q 2560 768 2384 614 
Q 2208 461 1971 371 
Q 1734 282 1466 282 
Q 1184 282 950 362 
Q 717 442 550 576 
Q 384 710 294 892 
Q 205 1075 205 1280 
Q 205 1434 246 1584 
Q 288 1734 390 1875 
Q 493 2016 659 2137 
Q 826 2259 1069 2368 
z
M 1683 2707 
Q 1920 2854 2022 3046 
Q 2125 3238 2125 3526 
Q 2125 3827 1968 4019 
Q 1811 4211 1472 4211 
Q 1158 4211 1011 4035 
Q 864 3859 864 3597 
Q 864 3334 1046 3126 
Q 1229 2918 1683 2707 
z
M 1254 2266 
Q 1107 2176 1011 2077 
Q 915 1978 860 1866 
Q 806 1754 784 1622 
Q 762 1491 762 1331 
Q 762 941 976 710 
Q 1190 480 1517 480 
Q 2163 480 2163 1235 
Q 2163 1414 2108 1555 
Q 2054 1696 1942 1817 
Q 1830 1939 1657 2048 
Q 1485 2157 1254 2266 
z
" transform="scale(0.015625)"/>
      <path id="STSongti-SC-Black-2e" d="M 704 294 
Q 538 294 422 409 
Q 307 525 307 691 
Q 307 858 422 973 
Q 538 1088 704 1088 
Q 870 1088 985 973 
Q 1101 858 1101 691 
Q 1101 525 985 409 
Q 870 294 704 294 
z
" transform="scale(0.015625)"/>
      <path id="STSongti-SC-Black-36" d="M 2458 4467 
L 2509 4346 
Q 2138 4141 1846 3926 
Q 1555 3712 1356 3430 
Q 1158 3149 1056 2761 
Q 954 2374 954 1824 
Q 954 1645 973 1414 
Q 992 1184 1053 976 
Q 1114 768 1235 627 
Q 1357 486 1562 486 
Q 1824 486 1987 739 
Q 2150 992 2150 1562 
Q 2150 2042 1996 2282 
Q 1843 2522 1555 2522 
Q 1434 2522 1318 2470 
L 1267 2637 
Q 1370 2682 1482 2704 
Q 1594 2726 1747 2726 
Q 2278 2726 2560 2425 
Q 2842 2125 2842 1626 
Q 2842 1318 2736 1072 
Q 2630 826 2451 650 
Q 2272 474 2035 378 
Q 1798 282 1530 282 
Q 1190 282 944 403 
Q 698 525 534 739 
Q 371 954 294 1242 
Q 218 1530 218 1862 
Q 218 2426 394 2864 
Q 570 3302 874 3622 
Q 1178 3942 1587 4150 
Q 1997 4358 2458 4467 
z
" transform="scale(0.015625)"/>
     </defs>
     <use xlink:href="#STSongti-SC-Black-32"/>
     <use xlink:href="#STSongti-SC-Black-38" x="46.899994"/>
     <use xlink:href="#STSongti-SC-Black-2e" x="93.799988"/>
     <use xlink:href="#STSongti-SC-Black-35" x="115.699982"/>
     <use xlink:href="#STSongti-SC-Black-33" x="162.599976"/>
     <use xlink:href="#STSongti-SC-Black-36" x="209.499969"/>
    </g>
   </g>
   <g id="text_13">
    <!-- 10.247 -->
    <g transform="translate(201.178125 359.569644) scale(0.1 -0.1)">
     <defs>
      <path id="STSongti-SC-Black-34" d="M 2086 4448 
L 2387 4448 
L 2387 1843 
L 2918 1843 
L 2918 1434 
L 2387 1434 
L 2387 282 
L 1670 282 
L 1670 1434 
L 122 1434 
L 122 1760 
L 966 2912 
Q 1254 3296 1529 3680 
Q 1805 4064 2086 4448 
z
M 1670 1843 
L 1670 3469 
Q 1453 3168 1289 2944 
Q 1126 2720 992 2537 
Q 858 2355 739 2188 
Q 621 2022 493 1843 
L 1670 1843 
z
" transform="scale(0.015625)"/>
      <path id="STSongti-SC-Black-37" d="M 358 4384 
L 2822 4384 
L 2822 4275 
Q 2714 4083 2522 3596 
Q 2330 3110 2042 2310 
Q 1485 736 1427 384 
L 1043 384 
Q 1120 717 1222 1065 
Q 1325 1414 1462 1817 
Q 1600 2221 1779 2691 
Q 1958 3162 2189 3731 
L 634 3731 
Q 467 3731 461 3648 
L 410 3379 
L 269 3379 
L 358 4384 
z
" transform="scale(0.015625)"/>
     </defs>
     <use xlink:href="#STSongti-SC-Black-31"/>
     <use xlink:href="#STSongti-SC-Black-30" x="46.899994"/>
     <use xlink:href="#STSongti-SC-Black-2e" x="93.799988"/>
     <use xlink:href="#STSongti-SC-Black-32" x="115.699982"/>
     <use xlink:href="#STSongti-SC-Black-34" x="162.599976"/>
     <use xlink:href="#STSongti-SC-Black-37" x="209.499969"/>
    </g>
   </g>
   <g id="text_14">
    <!-- 7.833 -->
    <g transform="translate(325.64465 395.302529) scale(0.1 -0.1)">
     <use xlink:href="#STSongti-SC-Black-37"/>
     <use xlink:href="#STSongti-SC-Black-2e" x="46.899994"/>
     <use xlink:href="#STSongti-SC-Black-38" x="68.799988"/>
     <use xlink:href="#STSongti-SC-Black-33" x="115.699982"/>
     <use xlink:href="#STSongti-SC-Black-33" x="162.599976"/>
    </g>
   </g>
   <g id="text_15">
    <!-- 6.287 -->
    <g transform="translate(391.402225 418.18697) scale(0.1 -0.1)">
     <use xlink:href="#STSongti-SC-Black-36"/>
     <use xlink:href="#STSongti-SC-Black-2e" x="46.899994"/>
     <use xlink:href="#STSongti-SC-Black-32" x="68.799988"/>
     <use xlink:href="#STSongti-SC-Black-38" x="115.699982"/>
     <use xlink:href="#STSongti-SC-Black-37" x="162.599976"/>
    </g>
   </g>
   <g id="text_16">
    <!-- 7.838 -->
    <g transform="translate(513.523438 395.228517) scale(0.1 -0.1)">
     <use xlink:href="#STSongti-SC-Black-37"/>
     <use xlink:href="#STSongti-SC-Black-2e" x="46.899994"/>
     <use xlink:href="#STSongti-SC-Black-38" x="68.799988"/>
     <use xlink:href="#STSongti-SC-Black-33" x="115.699982"/>
     <use xlink:href="#STSongti-SC-Black-38" x="162.599976"/>
    </g>
   </g>
   <g id="text_17">
    <!-- 6.435 -->
    <g transform="translate(579.281013 415.996221) scale(0.1 -0.1)">
     <use xlink:href="#STSongti-SC-Black-36"/>
     <use xlink:href="#STSongti-SC-Black-2e" x="46.899994"/>
     <use xlink:href="#STSongti-SC-Black-34" x="68.799988"/>
     <use xlink:href="#STSongti-SC-Black-33" x="115.699982"/>
     <use xlink:href="#STSongti-SC-Black-35" x="162.599976"/>
    </g>
   </g>
   <g id="text_18">
    <!-- HRNet及改进模型的参数量和计算量对比 -->
    <g transform="translate(260.524688 63.12) scale(0.12 -0.12)">
     <defs>
      <path id="STSongti-SC-Black-53ca" d="M 3866 384 
Q 3398 64 2848 -144 
Q 2298 -352 1709 -470 
Q 1120 -589 1030 -589 
Q 941 -589 941 -557 
Q 941 -525 1056 -493 
Q 1722 -320 2378 9 
Q 3034 339 3520 762 
Q 2682 1805 2534 3334 
Q 2400 2368 2198 1744 
Q 1997 1120 1625 633 
Q 1254 147 739 -198 
Q 224 -544 154 -544 
Q 134 -544 134 -521 
Q 134 -499 179 -461 
Q 749 64 1062 569 
Q 1376 1075 1523 1648 
Q 1670 2221 1737 2857 
Q 1805 3494 1811 4557 
L 1062 4557 
Q 890 4557 794 4512 
L 678 4800 
Q 813 4768 998 4768 
L 4006 4768 
Q 4051 4864 4134 4998 
Q 4218 5133 4246 5155 
Q 4275 5178 4314 5178 
Q 4416 5178 4813 4954 
Q 5210 4730 5210 4624 
Q 5210 4518 5024 4506 
Q 4941 4499 4896 4476 
Q 4851 4454 4819 4365 
L 4346 3098 
L 4698 3098 
Q 4800 3290 4854 3357 
Q 4909 3424 4960 3424 
Q 5050 3424 5338 3248 
Q 5626 3072 5728 2995 
Q 5830 2918 5830 2861 
Q 5830 2784 5696 2771 
Q 5626 2765 5584 2729 
Q 5542 2694 5498 2579 
Q 5107 1542 4448 877 
Q 5024 448 6150 275 
Q 6291 256 6291 227 
Q 6291 198 6137 153 
Q 5984 109 5747 -89 
Q 5510 -288 5449 -448 
Q 5389 -608 5267 -608 
Q 5229 -608 5177 -589 
Q 5126 -570 4860 -403 
Q 4595 -237 4342 -38 
Q 4090 160 3866 384 
z
M 3987 1267 
Q 4525 1997 4710 2886 
L 4237 2886 
L 4109 2739 
Q 4064 2682 4009 2682 
Q 3955 2682 3712 2858 
Q 3469 3034 3469 3078 
Q 3469 3123 3514 3149 
Q 3712 3277 3795 3552 
L 4096 4557 
L 2720 4557 
Q 2662 4467 2649 4310 
Q 2637 4154 2605 3859 
Q 2861 2291 3987 1267 
z
" transform="scale(0.015625)"/>
      <path id="STSongti-SC-Black-6539" d="M 3994 3629 
L 5069 3629 
Q 5139 3763 5244 3932 
Q 5350 4102 5382 4140 
Q 5414 4179 5459 4179 
Q 5504 4179 5661 4057 
Q 5818 3936 6010 3776 
Q 6202 3616 6202 3517 
Q 6202 3418 6022 3418 
L 5222 3418 
Q 5536 3334 5667 3280 
Q 5798 3226 5798 3178 
Q 5798 3130 5705 3094 
Q 5613 3059 5568 2988 
Q 5523 2918 5485 2765 
Q 5210 1677 4710 947 
Q 5222 499 6099 134 
Q 6189 96 6189 73 
Q 6189 51 6099 32 
Q 5907 -6 5715 -166 
Q 5523 -326 5389 -550 
Q 5350 -614 5302 -614 
Q 5254 -614 5216 -588 
Q 5178 -563 4963 -380 
Q 4749 -198 4560 0 
Q 4371 198 4218 410 
Q 3584 -122 2851 -387 
Q 2118 -653 1952 -653 
Q 1907 -653 1907 -627 
Q 1907 -602 2016 -557 
Q 3341 19 3955 832 
Q 3584 1536 3475 2675 
Q 3251 2355 2950 2044 
Q 2650 1734 2605 1734 
Q 2598 1734 2598 1741 
Q 2598 1773 2669 1875 
Q 3078 2522 3289 3328 
Q 3501 4134 3565 5242 
Q 3910 5203 4224 5139 
Q 4538 5075 4589 5049 
Q 4640 5024 4640 4979 
Q 4640 4934 4538 4883 
Q 4448 4838 4307 4419 
Q 4166 4000 3994 3629 
z
M 4768 3418 
L 3898 3418 
Q 3757 3130 3597 2867 
Q 3821 1958 4294 1370 
Q 4646 2131 4768 3418 
z
M 2150 2790 
L 2150 4179 
L 698 4179 
Q 576 4179 467 4134 
L 301 4422 
Q 480 4390 621 4390 
L 2042 4390 
Q 2202 4621 2237 4681 
Q 2272 4742 2320 4742 
Q 2368 4742 2566 4620 
Q 2765 4499 2925 4380 
Q 3085 4262 3085 4218 
Q 3085 4147 2861 4058 
L 2861 3162 
Q 2861 2938 2867 2790 
L 2880 2541 
Q 2880 2406 2697 2332 
Q 2515 2259 2291 2259 
Q 2150 2259 2150 2438 
L 2150 2579 
L 1370 2579 
L 1370 819 
L 2035 1030 
Q 2400 1152 2656 1248 
L 3040 1389 
Q 3162 1434 3178 1434 
Q 3194 1434 3194 1421 
Q 3194 1402 3104 1338 
Q 2298 768 1667 301 
Q 1037 -166 982 -243 
Q 928 -320 893 -320 
Q 858 -320 819 -250 
L 461 448 
Q 442 493 442 521 
Q 442 550 486 576 
Q 614 634 649 675 
Q 685 717 685 794 
L 685 2509 
Q 685 2835 666 3110 
Q 1043 2982 1440 2790 
L 2150 2790 
z
" transform="scale(0.015625)"/>
      <path id="STSongti-SC-Black-8fdb" d="M 2854 3610 
L 2502 3610 
Q 2374 3610 2272 3539 
L 2086 3840 
Q 2240 3821 2426 3821 
L 2854 3821 
Q 2861 4378 2842 5235 
Q 3558 5146 3670 5107 
Q 3782 5069 3782 5005 
Q 3782 4941 3724 4899 
Q 3667 4858 3651 4787 
Q 3635 4717 3635 4515 
Q 3635 4314 3622 3821 
L 4275 3821 
L 4275 4928 
Q 4275 5069 4262 5267 
Q 4640 5248 4883 5213 
Q 5126 5178 5174 5142 
Q 5222 5107 5222 5062 
Q 5222 4979 5094 4915 
L 5094 3821 
L 5133 3821 
Q 5267 4064 5331 4160 
Q 5395 4256 5443 4256 
Q 5491 4256 5651 4128 
Q 5811 4000 5955 3856 
Q 6099 3712 6099 3667 
Q 6099 3610 5984 3610 
L 5094 3610 
L 5094 2381 
L 5210 2381 
Q 5274 2483 5386 2627 
Q 5498 2771 5520 2790 
Q 5542 2810 5580 2810 
Q 5619 2810 5808 2669 
Q 5997 2528 6137 2400 
Q 6278 2272 6278 2221 
Q 6278 2170 6157 2170 
L 5094 2170 
L 5094 787 
Q 5094 653 5101 595 
L 5107 486 
Q 5107 416 4937 339 
Q 4768 262 4541 262 
Q 4314 262 4294 278 
Q 4275 294 4275 333 
L 4275 2170 
L 3539 2170 
Q 3475 1510 3164 1065 
Q 2854 621 2221 301 
Q 2541 122 3353 122 
Q 4166 122 4688 134 
Q 5210 147 5613 179 
L 6214 218 
Q 6278 218 6278 192 
Q 6278 166 6202 122 
Q 5856 -70 5734 -550 
Q 5722 -621 5667 -630 
Q 5613 -640 4745 -640 
Q 3878 -640 3392 -601 
Q 2906 -563 2669 -496 
Q 2432 -429 2230 -278 
Q 2029 -128 1677 250 
Q 1549 390 1491 390 
L 1453 390 
Q 1350 390 794 -467 
Q 755 -531 723 -531 
Q 659 -531 192 173 
Q 736 544 1018 698 
L 1018 2605 
L 614 2605 
Q 442 2605 346 2560 
L 211 2848 
Q 346 2816 531 2816 
L 941 2816 
Q 954 2854 1040 2992 
Q 1126 3130 1155 3152 
Q 1184 3174 1216 3174 
Q 1299 3174 1644 2963 
Q 1990 2752 1990 2678 
Q 1990 2605 1798 2534 
L 1798 608 
Q 1907 512 2067 390 
Q 2458 736 2614 1117 
Q 2771 1498 2816 2170 
L 2355 2170 
Q 2227 2170 2125 2099 
L 1939 2400 
Q 2093 2381 2278 2381 
L 2829 2381 
Q 2854 3072 2854 3610 
z
M 4275 3610 
L 3616 3610 
L 3558 2381 
L 4275 2381 
L 4275 3610 
z
M 525 5005 
Q 806 5005 1145 4905 
Q 1485 4806 1677 4617 
Q 1869 4429 1869 4179 
Q 1869 3930 1715 3805 
Q 1562 3680 1331 3680 
Q 1184 3680 1091 3789 
Q 998 3898 992 4134 
Q 986 4371 886 4563 
Q 787 4755 624 4860 
Q 461 4966 461 4985 
Q 461 5005 525 5005 
z
" transform="scale(0.015625)"/>
      <path id="STSongti-SC-Black-7684" d="M 3494 2739 
Q 3443 2714 3257 2528 
Q 3072 2342 3053 2342 
Q 3034 2342 3034 2364 
Q 3034 2387 3072 2458 
Q 3629 3475 3750 5267 
Q 4122 5184 4438 5081 
Q 4755 4979 4803 4944 
Q 4851 4909 4851 4861 
Q 4851 4813 4726 4781 
Q 4602 4749 4544 4614 
L 4186 3827 
L 5126 3827 
Q 5306 4211 5414 4211 
Q 5485 4211 5721 4057 
Q 5958 3904 6112 3789 
Q 6266 3674 6266 3587 
Q 6266 3501 5984 3430 
Q 5978 2477 5936 1437 
Q 5894 397 5827 99 
Q 5760 -198 5581 -355 
Q 5402 -512 5120 -553 
Q 4838 -595 4713 -595 
Q 4589 -595 4550 -560 
Q 4512 -525 4496 -358 
Q 4480 -192 4326 -64 
Q 4173 64 3859 141 
Q 3738 173 3738 195 
Q 3738 218 3834 218 
L 4288 211 
Q 4678 211 4844 268 
Q 5011 326 5072 505 
Q 5133 685 5177 1597 
Q 5222 2509 5222 3616 
L 4077 3616 
Q 3808 3136 3507 2790 
Q 4090 2630 4384 2412 
Q 4678 2195 4678 1926 
Q 4678 1658 4547 1510 
Q 4416 1363 4211 1363 
Q 4006 1363 3942 1449 
Q 3878 1536 3878 1830 
Q 3878 2515 3494 2739 
z
M 1363 3808 
Q 1402 4198 1402 4528 
Q 1402 4858 1376 5216 
Q 1702 5184 2012 5133 
Q 2323 5082 2400 5050 
Q 2477 5018 2477 4976 
Q 2477 4934 2368 4886 
Q 2259 4838 2134 4646 
Q 2010 4454 1690 3808 
L 2240 3808 
Q 2323 3987 2387 4070 
Q 2451 4154 2518 4154 
Q 2586 4154 2915 3942 
Q 3245 3731 3245 3644 
Q 3245 3558 3008 3501 
L 3008 768 
Q 3008 467 3014 346 
L 3021 128 
Q 3021 45 2966 6 
Q 2912 -32 2761 -83 
Q 2611 -134 2413 -134 
Q 2304 -134 2304 13 
L 2304 320 
L 1286 320 
L 1286 -64 
Q 1286 -134 1241 -176 
Q 1197 -218 1037 -256 
Q 877 -294 736 -294 
Q 595 -294 579 -275 
Q 563 -256 563 -205 
L 576 96 
Q 589 410 589 666 
L 589 3379 
Q 589 3770 576 4045 
Q 928 3962 1325 3808 
L 1363 3808 
z
M 1286 2298 
L 2304 2298 
L 2304 3597 
L 1414 3597 
Q 1389 3456 1286 3411 
L 1286 2298 
z
M 2304 2086 
L 1286 2086 
L 1286 531 
L 2304 531 
L 2304 2086 
z
" transform="scale(0.015625)"/>
      <path id="STSongti-SC-Black-53c2" d="M 4467 3898 
Q 3622 3802 2899 3686 
Q 3085 3648 3286 3593 
Q 3488 3539 3558 3523 
Q 3629 3507 3664 3481 
Q 3699 3456 3699 3414 
Q 3699 3373 3593 3344 
Q 3488 3315 3245 2989 
L 5088 2989 
Q 5357 3437 5389 3478 
Q 5421 3520 5475 3520 
Q 5530 3520 5747 3366 
Q 5965 3213 6128 3049 
Q 6291 2886 6291 2832 
Q 6291 2778 6189 2778 
L 4218 2778 
Q 4954 2112 6272 2010 
Q 6381 1997 6381 1965 
Q 6381 1933 6256 1888 
Q 6131 1843 5980 1670 
Q 5830 1498 5741 1280 
Q 5696 1171 5632 1171 
Q 5510 1171 4800 1651 
Q 4090 2131 3898 2778 
L 3091 2778 
Q 2630 2170 2144 1869 
Q 1658 1568 1072 1427 
Q 486 1286 384 1286 
Q 282 1286 282 1306 
Q 282 1344 518 1459 
Q 1670 2022 2234 2778 
L 653 2778 
Q 518 2778 442 2733 
L 346 3021 
Q 461 2989 602 2989 
L 2381 2989 
Q 2573 3283 2714 3654 
Q 1920 3501 1472 3354 
Q 1434 3341 1392 3341 
Q 1350 3341 1321 3389 
Q 1293 3437 1197 3737 
Q 1101 4038 1101 4086 
Q 1101 4134 1216 4154 
Q 1715 4243 2140 4566 
Q 2566 4890 2771 5363 
Q 3136 5280 3456 5177 
Q 3776 5075 3827 5040 
Q 3878 5005 3878 4966 
Q 3878 4896 3753 4886 
Q 3629 4877 3373 4707 
Q 3117 4538 2787 4400 
Q 2458 4262 1958 4077 
L 4371 4115 
Q 4294 4275 4169 4396 
Q 4045 4518 3763 4659 
Q 3686 4698 3686 4723 
Q 3686 4749 3827 4749 
Q 4525 4749 4941 4489 
Q 5357 4230 5357 3872 
Q 5357 3686 5225 3555 
Q 5094 3424 4937 3424 
Q 4781 3424 4685 3485 
Q 4589 3546 4499 3814 
Q 4480 3872 4467 3898 
z
M 3258 2598 
Q 3584 2349 3747 2169 
Q 3910 1990 3910 1939 
Q 3910 1888 3868 1888 
Q 3827 1888 3795 1897 
Q 3763 1907 3738 1907 
Q 3667 1907 3469 1779 
Q 2714 1299 1987 1059 
Q 1261 819 1094 819 
Q 1050 819 1050 838 
Q 1050 877 1293 973 
Q 2406 1446 3258 2598 
z
M 3891 1888 
Q 4134 1728 4313 1558 
Q 4493 1389 4534 1334 
Q 4576 1280 4576 1238 
Q 4576 1197 4518 1197 
L 4442 1203 
Q 4365 1203 4000 1018 
Q 3149 582 2336 371 
Q 1523 160 1152 160 
Q 1056 160 1056 186 
Q 1056 224 1331 301 
Q 2022 493 2777 960 
Q 3533 1427 3891 1888 
z
M 4634 1267 
Q 4870 1114 5068 925 
Q 5267 736 5324 656 
Q 5382 576 5382 534 
Q 5382 493 5306 493 
L 5210 499 
Q 5114 499 4845 365 
Q 3565 -256 2589 -470 
Q 1613 -685 928 -685 
Q 781 -685 781 -659 
Q 781 -627 1056 -570 
Q 2035 -371 2966 109 
Q 3898 589 4634 1267 
z
" transform="scale(0.015625)"/>
      <path id="STSongti-SC-Black-6570" d="M 2330 4051 
Q 2566 4378 2810 4973 
Q 3059 4877 3302 4729 
Q 3546 4582 3546 4515 
Q 3546 4448 3414 4435 
Q 3283 4422 3120 4336 
Q 2957 4250 2330 3827 
L 2330 3738 
L 2784 3738 
Q 3014 4141 3091 4141 
Q 3149 4141 3385 3920 
Q 3622 3699 3622 3612 
Q 3622 3526 3456 3526 
L 2330 3526 
L 2330 3373 
Q 2790 3290 3033 3120 
Q 3277 2950 3277 2771 
Q 3277 2592 3165 2467 
Q 3053 2342 2928 2342 
Q 2803 2342 2736 2406 
Q 2669 2470 2630 2637 
Q 2560 2989 2330 3226 
L 2330 3053 
Q 2330 2842 2342 2605 
L 2349 2387 
Q 2349 2336 2320 2313 
Q 2291 2291 2118 2208 
Q 2285 2131 2304 2102 
Q 2323 2074 2323 2054 
Q 2323 1990 2227 1971 
Q 2150 1952 2010 1728 
L 2381 1728 
Q 2496 1939 2544 2003 
Q 2592 2067 2637 2067 
Q 2682 2067 3066 1843 
Q 3834 3072 3898 5261 
Q 4294 5210 4569 5142 
Q 4845 5075 4899 5043 
Q 4954 5011 4954 4966 
Q 4954 4909 4880 4873 
Q 4806 4838 4761 4742 
Q 4717 4646 4617 4352 
Q 4518 4058 4346 3648 
L 5184 3648 
Q 5466 4192 5552 4192 
Q 5638 4192 5856 4009 
Q 6074 3827 6182 3721 
Q 6291 3616 6291 3539 
Q 6291 3437 6170 3437 
L 5466 3437 
Q 5811 3366 5811 3264 
Q 5811 3206 5737 3171 
Q 5664 3136 5622 3024 
Q 5581 2912 5501 2541 
Q 5421 2170 5232 1674 
Q 5043 1178 4851 890 
Q 5325 454 6246 141 
Q 6323 115 6323 83 
Q 6323 51 6214 32 
Q 6106 13 5872 -179 
Q 5638 -371 5517 -550 
Q 5478 -608 5433 -608 
Q 5389 -608 5347 -582 
Q 5306 -557 5088 -361 
Q 4870 -166 4700 19 
Q 4531 205 4403 384 
Q 3866 -141 3232 -441 
Q 2598 -742 2490 -742 
Q 2458 -742 2458 -716 
Q 2458 -691 2534 -646 
Q 3693 0 4166 762 
Q 3808 1446 3776 2566 
Q 3520 2163 3168 1773 
Q 3398 1651 3398 1568 
Q 3398 1485 3299 1449 
Q 3200 1414 3165 1379 
Q 3130 1344 3024 1123 
Q 2918 902 2746 659 
Q 2854 621 3014 525 
Q 3174 429 3225 304 
Q 3277 179 3277 60 
Q 3277 -58 3158 -170 
Q 3040 -282 2902 -282 
Q 2765 -282 2592 -109 
Q 2419 64 2285 173 
Q 1830 -192 1126 -419 
Q 422 -646 307 -646 
Q 262 -646 262 -624 
Q 262 -602 333 -576 
Q 1306 -198 1862 448 
Q 1498 634 787 800 
Q 1011 1184 1178 1517 
L 755 1517 
Q 627 1517 525 1446 
L 352 1747 
Q 506 1728 672 1728 
L 1280 1728 
Q 1376 1920 1574 2394 
L 1645 2374 
L 1645 3021 
Q 1325 2554 848 2214 
Q 371 1875 288 1875 
Q 275 1875 275 1888 
Q 275 1914 358 1997 
Q 960 2560 1299 3526 
L 755 3526 
Q 589 3526 480 3494 
L 371 3770 
Q 506 3738 691 3738 
L 1645 3738 
L 1645 4698 
Q 1645 5018 1632 5267 
Q 1978 5235 2179 5196 
Q 2381 5158 2419 5129 
Q 2458 5101 2458 5053 
Q 2458 5005 2330 4954 
L 2330 4051 
z
M 4851 3437 
L 4250 3437 
Q 4141 3181 3942 2842 
Q 4058 1952 4454 1357 
Q 4787 2176 4851 3437 
z
M 1888 1517 
L 1549 928 
Q 1850 902 2144 838 
Q 2330 1165 2413 1517 
L 1888 1517 
z
M 563 4806 
Q 947 4806 1238 4646 
Q 1530 4486 1530 4294 
Q 1530 4102 1437 3984 
Q 1344 3866 1203 3866 
Q 1062 3866 998 3926 
Q 934 3987 922 4134 
Q 883 4518 557 4742 
Q 512 4774 512 4790 
Q 512 4806 563 4806 
z
" transform="scale(0.015625)"/>
      <path id="STSongti-SC-Black-91cf" d="M 1984 4998 
L 4339 4998 
Q 4448 5171 4521 5257 
Q 4595 5344 4646 5344 
Q 4730 5344 5069 5107 
Q 5408 4870 5408 4787 
Q 5408 4704 5171 4602 
L 5171 4166 
L 5184 3578 
Q 5184 3482 5129 3424 
Q 5075 3366 4912 3312 
Q 4749 3258 4525 3258 
Q 4403 3258 4397 3398 
L 1971 3398 
Q 1971 3347 1801 3276 
Q 1632 3206 1331 3206 
Q 1242 3206 1242 3277 
L 1254 3565 
Q 1267 3757 1267 3917 
L 1267 4685 
Q 1267 4966 1248 5242 
Q 1677 5126 1984 4998 
z
M 4397 4333 
L 4397 4787 
L 2099 4787 
Q 2074 4717 1978 4672 
L 1978 4333 
L 4397 4333 
z
M 4397 3610 
L 4397 4122 
L 1978 4122 
L 1978 3610 
L 4397 3610 
z
M 4736 2906 
L 634 2906 
Q 506 2906 403 2835 
L 237 3136 
Q 390 3117 557 3117 
L 5101 3117 
Q 5190 3283 5283 3430 
Q 5376 3578 5408 3616 
Q 5440 3654 5491 3654 
Q 5542 3654 5741 3488 
L 6106 3194 
Q 6259 3059 6259 2982 
Q 6259 2906 6074 2906 
L 4979 2906 
Q 5562 2534 5562 2432 
Q 5562 2330 5357 2259 
L 5357 1619 
Q 5357 1434 5366 1293 
Q 5376 1152 5376 1120 
Q 5376 1088 5344 1053 
Q 5312 1018 5107 934 
Q 5651 499 5651 378 
Q 5651 314 5510 314 
L 3552 314 
L 3552 -186 
L 5094 -186 
Q 5254 83 5331 169 
Q 5408 256 5453 256 
Q 5498 256 5709 115 
Q 5920 -26 6061 -144 
Q 6202 -262 6202 -329 
Q 6202 -397 6048 -397 
L 858 -397 
Q 730 -397 627 -467 
L 461 -166 
Q 614 -186 781 -186 
L 2835 -186 
L 2835 314 
L 1338 314 
Q 1210 314 1107 243 
L 941 544 
Q 1094 525 1261 525 
L 2835 525 
L 2835 960 
L 1792 960 
Q 1792 883 1757 844 
Q 1722 806 1555 764 
Q 1389 723 1165 723 
Q 1069 723 1078 848 
Q 1088 973 1088 1363 
L 1088 2291 
Q 1088 2560 1069 2835 
Q 1421 2752 1747 2630 
L 4570 2630 
Q 4659 2803 4736 2906 
z
M 2835 2419 
L 1939 2419 
Q 1907 2310 1792 2266 
L 1792 1894 
L 2835 1894 
L 2835 2419 
z
M 4595 1894 
L 4595 2419 
L 3674 2419 
Q 3642 2330 3552 2285 
L 3552 1894 
L 4595 1894 
z
M 2835 1683 
L 1792 1683 
L 1792 1171 
L 2835 1171 
L 2835 1683 
z
M 4595 1171 
L 4595 1683 
L 3552 1683 
L 3552 1171 
L 4595 1171 
z
M 4928 890 
Q 4794 877 4701 877 
Q 4608 877 4595 960 
L 3552 960 
L 3552 525 
L 4704 525 
Q 4787 685 4928 890 
z
" transform="scale(0.015625)"/>
      <path id="STSongti-SC-Black-548c" d="M 1530 4205 
Q 659 4134 422 4134 
Q 333 4134 333 4169 
Q 333 4205 435 4224 
Q 973 4314 1632 4576 
Q 2291 4838 2701 5146 
Q 2899 4973 3129 4736 
Q 3360 4499 3382 4460 
Q 3405 4422 3405 4390 
Q 3405 4314 3270 4333 
Q 3206 4339 3040 4339 
Q 2874 4339 2400 4294 
Q 2362 4192 2272 4134 
L 2272 3187 
L 2496 3187 
L 2765 3597 
Q 2816 3674 2873 3674 
Q 2931 3674 3126 3523 
Q 3322 3373 3526 3136 
L 3526 3539 
Q 3526 3930 3514 4205 
Q 3968 4051 4314 3872 
L 4986 3872 
Q 5107 4096 5168 4192 
Q 5229 4288 5280 4288 
Q 5331 4288 5494 4192 
Q 5658 4096 5872 3936 
Q 6086 3776 6131 3725 
Q 6176 3674 6176 3635 
Q 6176 3520 5914 3443 
L 5914 762 
Q 5914 461 5920 346 
L 5926 134 
Q 5926 83 5900 54 
Q 5875 26 5731 -25 
Q 5587 -77 5433 -93 
Q 5280 -109 5209 -109 
Q 5139 -109 5123 -89 
Q 5107 -70 5107 0 
L 5107 397 
L 4243 397 
L 4243 -13 
Q 4243 -77 4211 -105 
Q 4179 -134 3958 -198 
Q 3738 -262 3558 -262 
Q 3501 -262 3501 -211 
L 3514 26 
Q 3526 262 3526 634 
L 3526 2976 
L 2272 2976 
L 2272 2630 
Q 2778 2515 3034 2262 
Q 3290 2010 3290 1709 
Q 3290 1549 3146 1401 
Q 3002 1254 2842 1254 
Q 2758 1254 2691 1289 
Q 2624 1325 2589 1389 
Q 2554 1453 2554 1517 
L 2554 1645 
Q 2554 2144 2272 2445 
L 2272 -557 
Q 2272 -608 2233 -643 
Q 2195 -678 2000 -729 
Q 1805 -781 1587 -781 
Q 1510 -781 1510 -704 
L 1523 -442 
Q 1530 -179 1530 134 
L 1530 1734 
Q 1280 1235 777 774 
Q 275 314 211 314 
Q 192 314 192 333 
Q 192 352 230 403 
Q 1114 1632 1382 2976 
L 698 2976 
Q 570 2976 467 2906 
L 301 3206 
Q 454 3187 621 3187 
L 1530 3187 
L 1530 4205 
z
M 5107 608 
L 5107 3661 
L 4320 3661 
Q 4294 3629 4243 3610 
L 4243 608 
L 5107 608 
z
" transform="scale(0.015625)"/>
      <path id="STSongti-SC-Black-8ba1" d="M 3725 2829 
L 2682 2829 
Q 2554 2829 2451 2758 
L 2285 3059 
Q 2438 3040 2605 3040 
L 3725 3040 
L 3725 4646 
Q 3725 4966 3712 5216 
Q 3910 5210 4259 5152 
Q 4608 5094 4665 5056 
Q 4723 5018 4723 4973 
Q 4723 4890 4563 4832 
L 4563 3040 
L 5101 3040 
Q 5395 3603 5485 3603 
Q 5555 3603 5897 3289 
Q 6240 2976 6240 2886 
Q 6240 2829 6118 2829 
L 4563 2829 
L 4563 230 
Q 4563 19 4576 -218 
L 4582 -435 
Q 4582 -506 4537 -557 
Q 4493 -608 4294 -659 
Q 4096 -710 3891 -710 
Q 3770 -710 3738 -678 
Q 3706 -646 3706 -563 
L 3712 -314 
Q 3725 -58 3725 262 
L 3725 2829 
z
M 1024 4845 
Q 2182 4845 2182 4230 
Q 2182 4013 2022 3875 
Q 1862 3738 1721 3738 
Q 1581 3738 1472 3837 
Q 1363 3936 1338 4077 
Q 1280 4410 1187 4541 
Q 1094 4672 858 4755 
Q 762 4794 762 4819 
Q 762 4845 1024 4845 
z
M 1882 781 
Q 2291 960 2790 1286 
Q 2854 1331 2886 1331 
Q 2918 1331 2918 1305 
Q 2918 1280 2867 1229 
Q 2592 934 2128 358 
Q 1664 -218 1510 -448 
Q 1466 -512 1440 -512 
Q 1414 -512 1398 -496 
Q 1382 -480 1280 -326 
L 1062 0 
Q 947 179 905 246 
Q 864 314 864 336 
Q 864 358 890 371 
Q 1126 499 1126 710 
L 1126 2726 
L 570 2726 
Q 442 2726 339 2656 
L 173 2957 
Q 326 2938 493 2938 
L 1088 2938 
Q 1267 3226 1289 3251 
Q 1312 3277 1338 3277 
Q 1382 3277 1740 3088 
Q 2099 2899 2099 2803 
Q 2099 2707 1882 2637 
L 1882 781 
z
" transform="scale(0.015625)"/>
      <path id="STSongti-SC-Black-7b97" d="M 4147 4474 
L 4992 4474 
Q 5216 4864 5251 4912 
Q 5286 4960 5325 4960 
Q 5382 4960 5724 4691 
Q 6067 4422 6067 4342 
Q 6067 4262 5926 4262 
L 4717 4262 
Q 5178 4070 5178 3782 
Q 5178 3533 4960 3418 
Q 5178 3290 5235 3245 
Q 5293 3200 5293 3149 
Q 5293 3046 5114 2995 
L 5114 2086 
L 5126 1498 
Q 5126 1446 5110 1417 
Q 5094 1389 4950 1341 
Q 4806 1293 4621 1280 
Q 4634 1261 4634 1235 
Q 4634 1165 4544 1120 
L 4544 870 
L 5082 870 
Q 5357 1306 5398 1354 
Q 5440 1402 5478 1402 
Q 5517 1402 5725 1235 
Q 5933 1069 6083 921 
Q 6234 774 6234 716 
Q 6234 659 6106 659 
L 4544 659 
L 4544 154 
Q 4544 -154 4550 -275 
L 4557 -506 
Q 4557 -557 4518 -592 
Q 4480 -627 4326 -668 
Q 4173 -710 4022 -710 
Q 3872 -710 3843 -694 
Q 3814 -678 3814 -608 
L 3814 659 
L 2579 659 
Q 2509 154 2176 -156 
Q 1843 -467 1232 -617 
Q 621 -768 237 -768 
Q 179 -768 179 -745 
Q 179 -723 243 -704 
Q 1050 -506 1421 -202 
Q 1792 102 1875 659 
L 557 659 
Q 429 659 326 589 
L 160 890 
Q 314 870 480 870 
L 1894 870 
Q 1901 1037 1894 1261 
Q 1715 1171 1516 1171 
Q 1318 1171 1273 1190 
Q 1229 1210 1229 1235 
Q 1229 1261 1241 1481 
Q 1254 1702 1254 1882 
L 1254 3072 
Q 1254 3354 1235 3629 
Q 1632 3552 1952 3430 
L 2170 3430 
Q 2029 3546 2029 3718 
Q 2029 4064 1837 4237 
L 1606 4237 
Q 1267 3834 803 3437 
Q 339 3040 250 3040 
Q 230 3040 230 3059 
Q 230 3091 320 3181 
Q 627 3488 902 4067 
Q 1178 4646 1267 5274 
Q 1606 5242 1907 5190 
Q 2208 5139 2249 5110 
Q 2291 5082 2291 5034 
Q 2291 4986 2195 4954 
Q 2144 4941 1773 4448 
L 2547 4448 
Q 2592 4531 2704 4704 
Q 2816 4877 2832 4889 
Q 2848 4902 2867 4902 
Q 2970 4902 3430 4422 
Q 3597 4877 3642 5293 
Q 4333 5184 4499 5145 
Q 4666 5107 4666 5049 
Q 4666 4992 4554 4950 
Q 4442 4909 4314 4704 
Q 4262 4621 4147 4474 
z
M 4237 4262 
L 3968 4262 
Q 3482 3731 3059 3430 
L 4211 3430 
Q 4333 3642 4361 3670 
Q 4390 3699 4412 3699 
Q 4435 3699 4461 3686 
Q 4416 4096 4237 4262 
z
M 3360 4237 
L 2317 4237 
Q 2752 4051 2752 3804 
Q 2752 3558 2554 3430 
L 2918 3430 
Q 3155 3750 3360 4237 
z
M 1958 2835 
L 4339 2835 
L 4339 3219 
L 2112 3219 
Q 2086 3123 1958 3098 
L 1958 2835 
z
M 4339 2624 
L 1958 2624 
L 1958 2246 
L 4339 2246 
L 4339 2624 
z
M 4339 1651 
L 4339 2035 
L 1958 2035 
L 1958 1651 
L 4339 1651 
z
M 4358 1344 
Q 4339 1376 4339 1440 
L 1958 1440 
L 1958 1344 
Q 2534 1331 2659 1296 
Q 2784 1261 2784 1203 
Q 2784 1146 2720 1123 
Q 2656 1101 2611 870 
L 3814 870 
Q 3814 1152 3802 1376 
Q 4070 1370 4358 1344 
z
" transform="scale(0.015625)"/>
      <path id="STSongti-SC-Black-5bf9" d="M 5299 3616 
Q 5446 3885 5513 3968 
Q 5581 4051 5648 4051 
Q 5715 4051 6012 3779 
Q 6310 3507 6310 3430 
Q 6310 3354 6163 3354 
L 5299 3354 
L 5299 -32 
Q 5299 -384 4998 -544 
Q 4698 -704 4326 -704 
Q 4230 -704 4185 -669 
Q 4141 -634 4128 -538 
Q 4077 -128 3392 6 
Q 3290 26 3290 58 
Q 3290 90 3398 90 
L 3776 77 
Q 4141 77 4320 147 
Q 4499 218 4499 429 
L 4499 3354 
L 3142 3354 
Q 3014 3354 2912 3283 
L 2746 3584 
Q 2899 3565 3066 3565 
L 4499 3565 
L 4499 4550 
Q 4499 5018 4486 5325 
Q 4749 5293 5037 5229 
Q 5325 5165 5398 5123 
Q 5472 5082 5472 5018 
Q 5472 4954 5299 4877 
L 5299 3616 
z
M 1728 2650 
Q 1946 3328 2010 4070 
L 582 4070 
Q 454 4070 352 4000 
L 179 4301 
Q 333 4282 499 4282 
L 1907 4282 
Q 2138 4602 2179 4643 
Q 2221 4685 2265 4685 
Q 2310 4685 2483 4582 
Q 2656 4480 2851 4336 
Q 3046 4192 3094 4134 
Q 3142 4077 3142 4032 
Q 3142 3942 3014 3923 
Q 2886 3904 2832 3811 
Q 2778 3718 2720 3501 
Q 2509 2701 2234 2106 
Q 2586 1683 2765 1356 
Q 2944 1030 2944 845 
Q 2944 506 2784 387 
Q 2624 269 2477 269 
Q 2208 269 2118 698 
Q 2042 1069 1882 1466 
Q 1434 787 835 345 
Q 237 -96 154 -96 
Q 141 -96 141 -83 
Q 141 -51 218 38 
Q 1101 998 1562 2163 
Q 1126 2970 538 3629 
Q 480 3693 480 3718 
Q 480 3744 493 3744 
Q 512 3744 576 3702 
Q 640 3661 1033 3312 
Q 1427 2963 1728 2650 
z
M 2995 2957 
Q 3098 2957 3437 2819 
Q 3776 2682 3955 2477 
Q 4134 2272 4134 2032 
Q 4134 1792 4003 1635 
Q 3872 1478 3677 1478 
Q 3482 1478 3382 1612 
Q 3283 1747 3309 1978 
Q 3315 2048 3315 2118 
Q 3315 2611 3021 2861 
Q 2963 2912 2963 2934 
Q 2963 2957 2995 2957 
z
" transform="scale(0.015625)"/>
      <path id="STSongti-SC-Black-6bd4" d="M 3994 2586 
Q 4390 2963 5050 4058 
Q 5350 3866 5635 3619 
Q 5920 3373 5920 3309 
Q 5920 3245 5808 3245 
Q 5696 3245 5619 3222 
Q 5542 3200 5379 3120 
Q 5216 3040 4826 2822 
L 3994 2355 
L 3994 531 
Q 3994 371 4125 313 
Q 4256 256 4666 256 
Q 4954 256 5091 323 
Q 5229 390 5344 614 
Q 5459 838 5626 1376 
Q 5651 1459 5683 1459 
Q 5715 1459 5702 1370 
Q 5645 1005 5645 793 
Q 5645 582 5709 444 
Q 5773 307 5926 201 
Q 6080 96 6080 0 
Q 6080 -122 5939 -266 
Q 5798 -410 5548 -470 
Q 5299 -531 4822 -531 
Q 4346 -531 3952 -480 
Q 3558 -429 3420 -352 
Q 3283 -275 3244 -121 
Q 3206 32 3206 390 
L 3206 4429 
Q 3206 4864 3187 5146 
Q 3770 5088 3974 5046 
Q 4179 5005 4179 4941 
Q 4179 4877 3994 4819 
L 3994 2586 
z
M 1555 2893 
L 2138 2893 
Q 2362 3245 2397 3283 
Q 2432 3322 2489 3322 
Q 2547 3322 2720 3178 
Q 2893 3034 3011 2928 
Q 3130 2822 3130 2752 
Q 3130 2682 3034 2682 
L 1555 2682 
L 1555 634 
L 2432 928 
Q 3040 1133 3091 1133 
Q 3110 1133 3110 1113 
Q 3110 1094 3072 1069 
Q 1664 128 1030 -454 
Q 960 -525 928 -525 
Q 902 -525 844 -413 
Q 787 -301 636 32 
Q 486 365 486 390 
Q 486 435 544 461 
Q 813 589 813 787 
L 813 4358 
Q 813 4685 794 4960 
Q 1715 4902 1715 4768 
Q 1715 4698 1555 4634 
L 1555 2893 
z
" transform="scale(0.015625)"/>
     </defs>
     <use xlink:href="#STSongti-SC-Black-48"/>
     <use xlink:href="#STSongti-SC-Black-52" x="81.199982"/>
     <use xlink:href="#STSongti-SC-Black-4e" x="152.599976"/>
     <use xlink:href="#STSongti-SC-Black-65" x="231.299957"/>
     <use xlink:href="#STSongti-SC-Black-74" x="273.699951"/>
     <use xlink:href="#STSongti-SC-Black-53ca" x="307.899948"/>
     <use xlink:href="#STSongti-SC-Black-6539" x="407.899933"/>
     <use xlink:href="#STSongti-SC-Black-8fdb" x="507.899918"/>
     <use xlink:href="#STSongti-SC-Black-6a21" x="607.899902"/>
     <use xlink:href="#STSongti-SC-Black-578b" x="707.899887"/>
     <use xlink:href="#STSongti-SC-Black-7684" x="807.899872"/>
     <use xlink:href="#STSongti-SC-Black-53c2" x="907.899857"/>
     <use xlink:href="#STSongti-SC-Black-6570" x="1007.899841"/>
     <use xlink:href="#STSongti-SC-Black-91cf" x="1107.899826"/>
     <use xlink:href="#STSongti-SC-Black-548c" x="1207.899811"/>
     <use xlink:href="#STSongti-SC-Black-8ba1" x="1307.899796"/>
     <use xlink:href="#STSongti-SC-Black-7b97" x="1407.89978"/>
     <use xlink:href="#STSongti-SC-Black-91cf" x="1507.899765"/>
     <use xlink:href="#STSongti-SC-Black-5bf9" x="1607.89975"/>
     <use xlink:href="#STSongti-SC-Black-6bd4" x="1707.899734"/>
    </g>
   </g>
   <g id="legend_1">
    <g id="patch_13">
     <path d="M 579 106.209063 
L 641 106.209063 
Q 643 106.209063 643 104.209063 
L 643 76.12 
Q 643 74.12 641 74.12 
L 579 74.12 
Q 577 74.12 577 76.12 
L 577 104.209063 
Q 577 106.209063 579 106.209063 
z
" style="fill: #ffffff; opacity: 0.8; stroke: #cccccc; stroke-linejoin: miter"/>
    </g>
    <g id="patch_14">
     <path d="M 581 86.268438 
L 601 86.268438 
L 601 79.268438 
L 581 79.268438 
z
" style="fill: #1f77b4"/>
    </g>
    <g id="text_19">
     <!-- 参数量 -->
     <g transform="translate(609 86.268438) scale(0.1 -0.1)">
      <use xlink:href="#STSongti-SC-Black-53c2"/>
      <use xlink:href="#STSongti-SC-Black-6570" x="99.999985"/>
      <use xlink:href="#STSongti-SC-Black-91cf" x="199.999969"/>
     </g>
    </g>
    <g id="patch_15">
     <path d="M 581 100.818438 
L 601 100.818438 
L 601 93.818438 
L 581 93.818438 
z
" style="fill: #ff7f0e"/>
    </g>
    <g id="text_20">
     <!-- 计算量 -->
     <g transform="translate(609 100.818438) scale(0.1 -0.1)">
      <use xlink:href="#STSongti-SC-Black-8ba1"/>
      <use xlink:href="#STSongti-SC-Black-7b97" x="99.999985"/>
      <use xlink:href="#STSongti-SC-Black-91cf" x="199.999969"/>
     </g>
    </g>
   </g>
  </g>
 </g>
 <defs>
  <clipPath id="p3080a0b5f6">
   <rect x="90" y="69.12" width="558" height="443.52"/>
  </clipPath>
 </defs>
</svg>
